<svg xmlns="http://www.w3.org/2000/svg" xmlns:xlink="http://www.w3.org/1999/xlink" fill="none" height="50" width="50" xmlns:v="https://vecta.io/nano"><g fill="#d5d3dd"><use xlink:href="#B"/><use xlink:href="#B" x="-2"/><use xlink:href="#B" x="-4"/><use xlink:href="#B" x="-6"/><use xlink:href="#C"/><use xlink:href="#C" x="-2"/><use xlink:href="#C" x="-4"/><use xlink:href="#C" x="-6"/></g><path d="M49.805 34.667l-2.472-2.472v-.862a4.69 4.69 0 0 0-4-4.618V26H44c1.238 0 2.425-.492 3.3-1.367s1.367-2.062 1.367-3.3v-4.667c0-.177-.07-.346-.195-.47S48.177 16 48 16s-.346.07-.47.195-.195.295-.195.47v.167c0 .044-.017.087-.05.118s-.074.05-.118.05-.087-.017-.118-.05-.05-.074-.05-.118v-.167c0-.177-.07-.346-.195-.47S46.5 16 46.333 16s-.346.07-.47.195-.195.295-.195.47v.167c0 .044-.018.087-.05.118s-.074.05-.118.05-.087-.017-.118-.05-.05-.074-.05-.118v-.167c0-.177-.07-.346-.195-.47s-.295-.195-.47-.195-.346.07-.47.195-.195.295-.195.47v4c0 .177-.07.346-.195.47s-.295.195-.47.195v-4.667h-8.667c-.354 0-.693-.14-.943-.4s-.39-.59-.39-.943.14-.693.39-.943.59-.39.943-.39h8.667v-1.043c.285-.075.538-.242.718-.475s.278-.52.278-.815-.098-.582-.278-.815-.433-.4-.718-.475v-1.7l-1-1.167-1 .833-1-1-1 1-1-1-1 1-1-1-1 1-1-1-1 1-1-.833-1 1.167v1.7c-.285.075-.538.242-.718.475s-.278.52-.278.815.098.582.278.815.433.4.718.475v8.377c-.177 0-.346-.07-.47-.195s-.195-.295-.195-.47v-4c0-.177-.07-.346-.195-.47S30.177 16 30 16s-.346.07-.47.195-.195.295-.195.47v.167c0 .044-.017.087-.05.118s-.074.05-.118.05-.087-.017-.118-.05-.05-.074-.05-.118v-.167c0-.177-.07-.346-.195-.47S28.5 16 28.333 16s-.346.07-.47.195-.195.295-.195.47v.167c0 .044-.018.087-.05.118s-.074.05-.118.05-.087-.017-.118-.05-.05-.074-.05-.118v-.167c0-.177-.07-.346-.195-.47s-.295-.195-.47-.195-.346.07-.47.195-.195.295-.195.47v4.667c0 1.238.492 2.425 1.367 3.3S29.43 26 30.667 26h.667v2.667c0 .177-.07.346-.195.47s-.295.195-.47.195H28v7.138L30.472 34h.862c.883.002 1.75-.248 2.496-.72s1.343-1.147 1.72-1.946H42c.177 0 .346.07.47.195s.195.295.195.47v2.667z" fill="#e2cbb5"/><path d="M39.333 4h-4c-2.542 0-4 1.458-4 4v.667l1-1 1 1 1-1 1 1 1-1 1 1 1-1 1 1 1-1 1 1 1-1 1 1V8c0-2.542-1.458-4-4-4z" fill="#bf6c35"/><use xlink:href="#D" fill="#fff"/><use xlink:href="#E" fill="#9fa628"/><use xlink:href="#D" x="4" fill="#fff"/><use xlink:href="#E" x="4" fill="#9fa628"/><g fill="#d5d3dd"><use xlink:href="#F"/><use xlink:href="#F" x="-2"/><use xlink:href="#F" x="-4"/><use xlink:href="#F" x="-6"/><use xlink:href="#F" x="-8"/><path d="M15 14l-.667 1.333L13.667 14l.667-.333zm-2 0l-.667 1.333L11.667 14l.667-.333zm-2 0l-.667 1.333L9.667 14l.667-.333zm-2 0l-.667 1.333L7.667 14l.667-.333z"/></g><g fill="#e2cbb5"><path d="M4.666 27.9l-4.02-2.233 4.02-2.233z"/><path d="M4.666 24.567l-4.02-2.233 4.02-2.233z"/><path d="M4.666 21.233L.646 19l4.02-2.233z"/><path d="M4.666 17.9l-4.02-2.233 4.02-2.233z"/></g><path d="M7.334 16.667c-.354 0-.693-.14-.943-.4s-.39-.59-.39-.943.14-.693.39-.943.59-.4.943-.4H16V8c0-1.125-.287-2.037-.833-2.703l.882-.882a1.77 1.77 0 0 0 .952.252c.088 0 .173-.035.236-.098s.098-.147.098-.236-.035-.173-.098-.236S17.09 4 17 4c-.635 0-1-.365-1-1 0-.088-.035-.173-.098-.236s-.147-.098-.236-.098-.173.035-.236.098-.098.147-.098.236a1.77 1.77 0 0 0 .252.943l-.882.9C14.037 4.287 13.125 4 12 4H8c-1.125 0-2.037.287-2.703.833l-.882-.882A1.77 1.77 0 0 0 4.667 3c0-.088-.035-.173-.098-.236s-.147-.098-.236-.098-.173.035-.236.098S4 2.912 4 3c0 .635-.365 1-1 1-.088 0-.173.035-.236.098s-.098.147-.098.236.035.173.098.236.147.098.236.098a1.77 1.77 0 0 0 .943-.252l.9.882C4.287 5.963 4 6.875 4 8v20.667c0 .177-.07.346-.195.47s-.295.195-.47.195H.667v7.138L3.14 34H4c.883.002 1.75-.248 2.496-.72s1.344-1.147 1.72-1.946h6.45c.177 0 .346.07.47.195s.195.294.195.47v2.667h7.138L20 32.195v-.862a4.69 4.69 0 0 0-4-4.618v-.048h8.617l-1.93-1.545 2.367-.788-2.367-.788L24.617 22H16v-.667h8.617l-1.93-1.545L25.054 19l-2.367-.788 1.93-1.545z" fill="#9fa628"/><use xlink:href="#D" x="-27.333" fill="#fff"/><use xlink:href="#E" x="-27.333" fill="#bf6c35"/><use xlink:href="#D" x="-23.333" fill="#fff"/><use xlink:href="#E" x="-23.333" fill="#bf6c35"/><path d="M.667 44.333c0 .62.246 1.212.683 1.65a2.33 2.33 0 0 0 1.65.683h1.333V45.5H3a1 1 0 0 1-1-1v-2h2v-1.167H2v-1.5h2.333v-1.167H.667zm6.667.167a1 1 0 0 1-1 1H6v-6.833H4.667v8h1.667c.62 0 1.212-.246 1.65-.683a2.33 2.33 0 0 0 .683-1.65v-5.667H7.334zm3-5.833H9v8h1.333zm1.667 0h-1.333v8H14V45.5h-2zm7 .873a2.2 2.2 0 0 0-1.666-.873h-1.667v8H17v-6.833h.333a1 1 0 0 1 1 1v5.833h1.333v-5.833a1 1 0 0 1 1-1H21v6.833h1.333v-8h-1.667a2.2 2.2 0 0 0-.932.249 2.18 2.18 0 0 0-.735.624zM22.667 41v5.667H24v-2.833h1.333v2.833h1.333v-8H25c-.62 0-1.212.246-1.65.683a2.33 2.33 0 0 0-.683 1.65zm2.667 1.667H24v-1.833a1 1 0 0 1 1-1h.333zm3.333-4H27v8h1.333v-2.833h.333a1 1 0 0 1 1 1v1.833H31V45c.005-.346-.077-.687-.24-.993s-.397-.566-.685-.757a2.07 2.07 0 0 0 .685-.757A2.08 2.08 0 0 0 31 41.5V41c0-.62-.246-1.212-.683-1.65a2.33 2.33 0 0 0-1.65-.683zm1 3a1 1 0 0 1-1 1h-.333v-2.833h.333a1 1 0 0 1 1 1zm1.667-1.834h1v6.833h1.333v-6.833h1v-1.167h-3.333zm5-1.166H35v8h1.333zM36.667 41v5.667H38V44h1.333v2.667h1.333v-8H39c-.62 0-1.212.246-1.65.683a2.33 2.33 0 0 0-.683 1.65zm2.667 1.833H38v-2a1 1 0 0 1 1-1h.333zm4.333-3.226a2.6 2.6 0 0 0-.895-.692 2.62 2.62 0 0 0-1.105-.248H41v8h1.333V40.11c.687.285 1.333 1.088 1.333 1.892v4.667H45v-8h-1.333zm5.667 1.726v-.667c0-1.5-.713-2.167-2-2.167s-2 .88-2 2.167c0 2.5 2.667 2.5 2.667 4v.167c0 .5-.167.833-.667.833s-.667-.333-.667-.833V44h-1.333v.667c0 1.513.713 2.167 2 2.167s2-.88 2-2.167c0-2.5-2.667-2.5-2.667-4V40.5c0-.5.167-.833.667-.833S48 40 48 40.5v.833z" fill="#663f4c"/><defs ><path id="B" d="M41.667 13.667v.5a.5.5 0 0 0 .5.5.5.5 0 0 0 .5-.5v-.5z"/><path id="C" d="M40.667 17v-.5a.5.5 0 0 1 .5-.5.5.5 0 0 1 .5.5v.5z"/><path id="D" d="M35.333 12.5a1.5 1.5 0 1 0 0-3 1.5 1.5 0 1 0 0 3z"/><path id="E" d="M35.333 11.833c.46 0 .833-.373.833-.833s-.373-.833-.833-.833-.833.373-.833.833.373.833.833.833z"/><path id="F" d="M16 16.667l-.667-1.333-.667 1.333.667.333z"/></defs></svg>